<svg width="36" height="30" viewBox="0 0 36 30" fill="none" xmlns="http://www.w3.org/2000/svg">
<g clip-path="url(#clip0_1_178)">
<rect width="35.4545" height="30" fill="white"/>
<path d="M30 17.0881V23.8636C30 25.554 29.3999 26.9993 28.1996 28.1996C26.9993 29.3999 25.554 30 23.8636 30H6.13636C4.44602 30 3.00071 29.3999 1.80043 28.1996C0.600142 26.9993 0 25.554 0 23.8636V6.13636C0 4.44602 0.600142 3.00071 1.80043 1.80043C3.00071 0.600142 4.44602 0 6.13636 0H23.8636C24.7585 0 25.5895 0.177557 26.3565 0.53267C26.5696 0.632102 26.6974 0.795455 26.7401 1.02273C26.7827 1.2642 26.7188 1.47017 26.5483 1.64062L25.5043 2.68466C25.3622 2.8267 25.1989 2.89773 25.0142 2.89773C24.9716 2.89773 24.9077 2.88352 24.8224 2.85511C24.4957 2.76989 24.1761 2.72727 23.8636 2.72727H6.13636C5.19886 2.72727 4.39631 3.06108 3.72869 3.72869C3.06108 4.39631 2.72727 5.19886 2.72727 6.13636V23.8636C2.72727 24.8011 3.06108 25.6037 3.72869 26.2713C4.39631 26.9389 5.19886 27.2727 6.13636 27.2727H23.8636C24.8011 27.2727 25.6037 26.9389 26.2713 26.2713C26.9389 25.6037 27.2727 24.8011 27.2727 23.8636V18.4517C27.2727 18.267 27.3366 18.1108 27.4645 17.983L28.8281 16.6193C28.9702 16.4773 29.1335 16.4062 29.3182 16.4062C29.4034 16.4062 29.4886 16.4276 29.5739 16.4702C29.858 16.5838 30 16.7898 30 17.0881ZM34.9219 6.66903L17.5781 24.0128C17.2372 24.3537 16.8324 24.5241 16.3636 24.5241C15.8949 24.5241 15.4901 24.3537 15.1491 24.0128L5.98722 14.8509C5.64631 14.5099 5.47585 14.1051 5.47585 13.6364C5.47585 13.1676 5.64631 12.7628 5.98722 12.4219L8.33097 10.0781C8.67188 9.73722 9.0767 9.56676 9.54545 9.56676C10.0142 9.56676 10.419 9.73722 10.7599 10.0781L16.3636 15.6818L30.1491 1.89631C30.4901 1.5554 30.8949 1.38494 31.3636 1.38494C31.8324 1.38494 32.2372 1.5554 32.5781 1.89631L34.9219 4.24006C35.2628 4.58097 35.4332 4.9858 35.4332 5.45455C35.4332 5.9233 35.2628 6.32812 34.9219 6.66903Z" fill="#F29900"/>
</g>
<defs>
<clipPath id="clip0_1_178">
<rect width="35.4545" height="30" fill="white"/>
</clipPath>
</defs>
</svg>
