<svg width="16" height="16" viewBox="0 0 16 16" fill="none" xmlns="http://www.w3.org/2000/svg">
<path fill-rule="evenodd" clip-rule="evenodd" d="M13.8541 2.14598C13.9007 2.19242 13.9376 2.2476 13.9629 2.30834C13.9881 2.36909 14.001 2.43421 14.001 2.49998C14.001 2.56575 13.9881 2.63087 13.9629 2.69161C13.9376 2.75236 13.9007 2.80753 13.8541 2.85398L2.85414 13.854C2.76026 13.9479 2.63292 14.0006 2.50014 14.0006C2.36737 14.0006 2.24003 13.9479 2.14614 13.854C2.05226 13.7601 1.99951 13.6328 1.99951 13.5C1.99951 13.3672 2.05226 13.2399 2.14614 13.146L13.1461 2.14598C13.1926 2.09941 13.2478 2.06247 13.3085 2.03727C13.3693 2.01206 13.4344 1.99908 13.5001 1.99908C13.5659 1.99908 13.631 2.01206 13.6918 2.03727C13.7525 2.06247 13.8077 2.09941 13.8541 2.14598Z" fill="black"/>
<path fill-rule="evenodd" clip-rule="evenodd" d="M2.14592 2.14598C2.09935 2.19242 2.06241 2.2476 2.0372 2.30834C2.012 2.36909 1.99902 2.43421 1.99902 2.49998C1.99902 2.56575 2.012 2.63087 2.0372 2.69161C2.06241 2.75236 2.09935 2.80753 2.14592 2.85398L13.1459 13.854C13.2398 13.9479 13.3671 14.0006 13.4999 14.0006C13.6327 14.0006 13.76 13.9479 13.8539 13.854C13.9478 13.7601 14.0005 13.6328 14.0005 13.5C14.0005 13.3672 13.9478 13.2399 13.8539 13.146L2.85392 2.14598C2.80747 2.09941 2.7523 2.06247 2.69155 2.03727C2.63081 2.01206 2.56568 1.99908 2.49992 1.99908C2.43415 1.99908 2.36903 2.01206 2.30828 2.03727C2.24754 2.06247 2.19236 2.09941 2.14592 2.14598Z" fill="black"/>
</svg>
