<svg width="20" height="20" viewBox="0 0 20 20" fill="none" xmlns="http://www.w3.org/2000/svg">
<path d="M5.00008 15.8333C5.00008 16.75 5.75008 17.5 6.66675 17.5H13.3334C14.2501 17.5 15.0001 16.75 15.0001 15.8333V5.83333H5.00008V15.8333ZM7.64175 10.4917C7.48593 10.3359 7.3984 10.1245 7.3984 9.90417C7.3984 9.68381 7.48593 9.47248 7.64175 9.31667C7.79756 9.16085 8.00889 9.07332 8.22925 9.07332C8.4496 9.07332 8.66093 9.16085 8.81675 9.31667L10.0001 10.4917L11.1751 9.31667C11.3309 9.16085 11.5422 9.07332 11.7626 9.07332C11.9829 9.07332 12.1943 9.16085 12.3501 9.31667C12.5059 9.47248 12.5934 9.68381 12.5934 9.90417C12.5934 10.1245 12.5059 10.3359 12.3501 10.4917L11.1751 11.6667L12.3501 12.8417C12.4272 12.9188 12.4884 13.0104 12.5302 13.1112C12.5719 13.212 12.5934 13.3201 12.5934 13.4292C12.5934 13.5383 12.5719 13.6463 12.5302 13.7471C12.4884 13.8479 12.4272 13.9395 12.3501 14.0167C12.2729 14.0938 12.1813 14.155 12.0805 14.1968C11.9797 14.2385 11.8717 14.26 11.7626 14.26C11.6535 14.26 11.5454 14.2385 11.4446 14.1968C11.3438 14.155 11.2522 14.0938 11.1751 14.0167L10.0001 12.8417L8.82508 14.0167C8.74793 14.0938 8.65634 14.155 8.55553 14.1968C8.45473 14.2385 8.34669 14.26 8.23758 14.26C8.12847 14.26 8.02043 14.2385 7.91963 14.1968C7.81883 14.155 7.72723 14.0938 7.65008 14.0167C7.57293 13.9395 7.51173 13.8479 7.46998 13.7471C7.42822 13.6463 7.40673 13.5383 7.40673 13.4292C7.40673 13.3201 7.42822 13.212 7.46998 13.1112C7.51173 13.0104 7.57293 12.9188 7.65008 12.8417L8.82508 11.6667L7.64175 10.4917ZM15.0001 3.33333H12.9167L12.3251 2.74167C12.1751 2.59167 11.9584 2.5 11.7417 2.5H8.25842C8.04175 2.5 7.82508 2.59167 7.67508 2.74167L7.08342 3.33333H5.00008C4.54175 3.33333 4.16675 3.70833 4.16675 4.16667C4.16675 4.625 4.54175 5 5.00008 5H15.0001C15.4584 5 15.8334 4.625 15.8334 4.16667C15.8334 3.70833 15.4584 3.33333 15.0001 3.33333Z" fill="black"/>
</svg>
