<svg width="28" height="28" viewBox="0 0 28 28" fill="none" xmlns="http://www.w3.org/2000/svg">
<path d="M17.5 8.75H6.83812L9.97675 5.61225L8.75 4.375L3.5 9.625L8.75 14.875L9.97675 13.6369L6.84075 10.5H17.5C18.8924 10.5 20.2277 11.0531 21.2123 12.0377C22.1969 13.0223 22.75 14.3576 22.75 15.75C22.75 17.1424 22.1969 18.4777 21.2123 19.4623C20.2277 20.4469 18.8924 21 17.5 21H10.5V22.75H17.5C19.3565 22.75 21.137 22.0125 22.4497 20.6997C23.7625 19.387 24.5 17.6065 24.5 15.75C24.5 13.8935 23.7625 12.113 22.4497 10.8003C21.137 9.4875 19.3565 8.75 17.5 8.75Z" fill="#C4C4C4"/>
</svg>
