<svg width="28" height="28" viewBox="0 0 28 28" fill="none" xmlns="http://www.w3.org/2000/svg">
<path d="M10.5 8.75H21.1619L18.0232 5.61225L19.25 4.375L24.5 9.625L19.25 14.875L18.0232 13.6369L21.1592 10.5H10.5C9.10761 10.5 7.77226 11.0531 6.78769 12.0377C5.80312 13.0223 5.25 14.3576 5.25 15.75C5.25 17.1424 5.80312 18.4777 6.78769 19.4623C7.77226 20.4469 9.10761 21 10.5 21H17.5V22.75H10.5C8.64348 22.75 6.86301 22.0125 5.55025 20.6997C4.2375 19.387 3.5 17.6065 3.5 15.75C3.5 13.8935 4.2375 12.113 5.55025 10.8003C6.86301 9.4875 8.64348 8.75 10.5 8.75Z" fill="#C4C4C4"/>
</svg>
