<svg width="20" height="20" viewBox="0 0 20 20" fill="none" xmlns="http://www.w3.org/2000/svg">
<path d="M10.1923 18.9286C10.1923 18.8095 10.1282 18.75 10 18.75C9.52724 18.75 9.12059 18.5919 8.78005 18.2757C8.4395 17.9594 8.26923 17.5818 8.26923 17.1429C8.26923 17.0238 8.20513 16.9643 8.07692 16.9643C7.94872 16.9643 7.88462 17.0238 7.88462 17.1429C7.88462 17.686 8.09095 18.1492 8.50361 18.5324C8.91627 18.9156 9.41506 19.1071 10 19.1071C10.1282 19.1071 10.1923 19.0476 10.1923 18.9286ZM2.1875 15.7143H17.8125C15.6811 13.4821 14.6154 10.3869 14.6154 6.42857C14.6154 6.04911 14.5192 5.65848 14.3269 5.2567C14.1346 4.85491 13.8582 4.47173 13.4976 4.10714C13.137 3.74256 12.6502 3.44308 12.0373 3.20871C11.4243 2.97433 10.7452 2.85714 10 2.85714C9.25481 2.85714 8.57572 2.97433 7.96274 3.20871C7.34976 3.44308 6.86298 3.74256 6.5024 4.10714C6.14183 4.47173 5.86538 4.85491 5.67308 5.2567C5.48077 5.65848 5.38462 6.04911 5.38462 6.42857C5.38462 10.3869 4.31891 13.4821 2.1875 15.7143ZM20 15.7143C20 16.1012 19.8478 16.436 19.5433 16.7188C19.2388 17.0015 18.8782 17.1429 18.4615 17.1429H13.0769C13.0769 17.9315 12.7764 18.6049 12.1755 19.1629C11.5745 19.721 10.8494 20 10 20C9.15064 20 8.42548 19.721 7.82452 19.1629C7.22356 18.6049 6.92308 17.9315 6.92308 17.1429H1.53846C1.12179 17.1429 0.761218 17.0015 0.456731 16.7188C0.152244 16.436 0 16.1012 0 15.7143C0.400641 15.4018 0.765224 15.0744 1.09375 14.7321C1.42228 14.3899 1.76282 13.9453 2.11538 13.3984C2.46795 12.8516 2.76643 12.2619 3.01082 11.6295C3.25521 10.997 3.45553 10.2307 3.61178 9.33036C3.76803 8.43006 3.84615 7.4628 3.84615 6.42857C3.84615 5.29762 4.3149 4.24665 5.2524 3.27567C6.1899 2.30469 7.41987 1.71503 8.94231 1.5067C8.87821 1.36533 8.84615 1.22024 8.84615 1.07143C8.84615 0.77381 8.95833 0.520833 9.18269 0.3125C9.40705 0.104167 9.67949 0 10 0C10.3205 0 10.5929 0.104167 10.8173 0.3125C11.0417 0.520833 11.1538 0.77381 11.1538 1.07143C11.1538 1.22024 11.1218 1.36533 11.0577 1.5067C12.5801 1.71503 13.8101 2.30469 14.7476 3.27567C15.6851 4.24665 16.1538 5.29762 16.1538 6.42857C16.1538 7.4628 16.232 8.43006 16.3882 9.33036C16.5445 10.2307 16.7448 10.997 16.9892 11.6295C17.2336 12.2619 17.5321 12.8516 17.8846 13.3984C18.2372 13.9453 18.5777 14.3899 18.9062 14.7321C19.2348 15.0744 19.5994 15.4018 20 15.7143Z" fill="black"/>
</svg>
