<svg width="40" height="40" viewBox="0 0 40 40" fill="none" xmlns="http://www.w3.org/2000/svg">
<path d="M23.3333 35H16.6666L15.7483 30.8667C14.6553 30.4393 13.6333 29.8493 12.7166 29.1167L8.67659 30.3883L5.34326 24.615L8.46326 21.7517C8.28865 20.5915 8.28865 19.4118 8.46326 18.2517L5.34326 15.3867L8.67659 9.61333L12.7166 10.885C13.6337 10.1516 14.6563 9.56106 15.7499 9.13333L16.6666 5H23.3333L24.2516 9.13333C25.3445 9.5607 26.3666 10.1507 27.2833 10.8833L31.3233 9.61167L34.6566 15.385L31.5366 18.2483C31.7113 19.4085 31.7113 20.5882 31.5366 21.7483L34.6566 24.6117L31.3233 30.385L27.2833 29.1133C26.3668 29.8472 25.3447 30.4383 24.2516 30.8667L23.3333 35Z" stroke="#999999" stroke-width="2" stroke-linecap="round" stroke-linejoin="round"/>
<path d="M20 25C22.7614 25 25 22.7614 25 20C25 17.2386 22.7614 15 20 15C17.2386 15 15 17.2386 15 20C15 22.7614 17.2386 25 20 25Z" stroke="#999999" stroke-width="2"/>
</svg>
